<?xml version="1.0" ?><svg height="64" id="svg8" version="1.1" viewBox="0 0 16.933333 16.933333" width="64" xmlns="http://www.w3.org/2000/svg" xmlns:cc="http://creativecommons.org/ns#" xmlns:dc="http://purl.org/dc/elements/1.1/" xmlns:inkscape="http://www.inkscape.org/namespaces/inkscape" xmlns:rdf="http://www.w3.org/1999/02/22-rdf-syntax-ns#" xmlns:sodipodi="http://sodipodi.sourceforge.net/DTD/sodipodi-0.dtd" xmlns:svg="http://www.w3.org/2000/svg"><defs id="defs2"/><g id="layer2"><path d="m 8.4669515,1.0586508 c -0.4351076,0 -0.7927197,0.357636 -0.7927197,0.792771 v 0.403622 c 0.2483236,-0.0885 0.5141235,-0.138993 0.7916862,-0.13902 0.278606,-1.29e-4 0.5451311,0.05106 0.7942699,0.140053 v -0.404655 c 0,-0.435135 -0.3581283,-0.792771 -0.7932364,-0.792771 z m -0.00103,1.586577 A 1.8522659,1.8522395 0 0 0 6.6138257,4.4974398 1.8522659,1.8522395 0 0 0 8.4659162,6.3496527 1.8522659,1.8522395 0 0 0 10.319041,4.4974398 1.8522659,1.8522395 0 0 0 8.4659162,2.6452278 Z m 5.292e-4,1.059441 c 0.432967,0 0.7932364,0.3579971 0.7932364,0.792771 0,0.434775 -0.3599114,0.7932891 -0.7932364,0.7932891 -0.4333243,0 -0.7927195,-0.3603033 -0.7927195,-0.7932891 0,-0.4329851 0.3597527,-0.792771 0.7927195,-0.792771 z m 0,0.5297199 c -0.1452719,0 -0.2640677,0.1182941 -0.2640677,0.2635681 0,0.145275 0.1187958,0.2640848 0.2640677,0.2640848 0.1452713,0 0.2645844,-0.1188098 0.2645844,-0.2640848 0,-0.145274 -0.1193131,-0.2635681 -0.2645844,-0.2635681 z m 2.1538823,1.2806312 c -0.01771,0.03736 -0.03832,0.07278 -0.05788,0.1090448 -0.0011,0.00201 -0.002,0.0042 -0.0031,0.0062 -6.61e-4,0.00119 -0.0014,0.00241 -0.0021,0.0036 -0.261112,0.479117 -0.6787627,0.860584 -1.1874957,1.069776 0.615506,1.069061 1.2327727,2.1374451 1.7544187,3.0408529 C 10.361377,9.9283158 9.5512743,10.026643 8.7310414,10.045271 V 9.5243378 c 0.003,-0.149987 -0.1192549,-0.27242 -0.2692353,-0.2697699 -0.1463405,0.00259 -0.2628034,0.1234307 -0.2599335,0.2697699 V 10.045271 C 7.3812994,10.026751 6.5724274,9.9284616 5.8092445,9.7444936 6.3929791,8.7311567 6.9814833,7.7179507 7.5631497,6.7051919 7.0125629,6.4796417 6.5665754,6.0535956 6.3120581,5.5186177 L 6.2350601,5.6529858 4.1896993,9.2008207 c -0.00902,-0.0046 -0.017691,-0.0088 -0.026891,-0.0124 -0.3219013,-0.144984 -0.6231456,-0.306293 -0.900207,-0.4806249 -0.044706,-0.02913 -0.097102,-0.04408 -0.1503818,-0.0429 -0.2664312,0.0046 -0.3597329,0.35571 -0.130742,0.4919929 0.2927512,0.1842029 0.6086274,0.351631 0.9430985,0.503364 L 3.0455564,11.184813 2.9225659,11.398251 c 0.00854,-0.0017 0.017759,-0.0011 0.026355,-0.0026 0.063579,-0.01111 0.1286234,-0.01761 0.1948208,-0.01912 0.010541,-2.64e-4 0.020405,-0.0031 0.031006,-0.0031 0.018963,7e-6 0.037036,0.0033 0.055811,0.0041 0.035373,0.0015 0.07026,0.004 0.1049035,0.0083 0.029131,0.0036 0.057773,0.008 0.0863,0.01344 0.012049,0.0023 0.023723,0.0056 0.035657,0.0083 0.075429,0.01669 0.1479969,0.03968 0.2180755,0.06874 0.00646,0.0027 0.013227,0.0045 0.019637,0.0072 0.1531348,0.06635 0.2907137,0.160419 0.4077285,0.276488 0.00496,0.0049 0.00959,0.01001 0.01447,0.01499 0.050258,0.05142 0.095989,0.106932 0.1374598,0.165893 0.00826,0.01169 0.016399,0.02318 0.024289,0.03514 0.044335,0.06752 0.085195,0.137692 0.1167892,0.212921 l 1.1363695,-1.967454 c 0.8503393,0.217868 1.7540292,0.338087 2.6696129,0.357637 v 0.796905 c -0.008,0.360717 0.5371687,0.360717 0.5291688,0 V 10.580159 C 9.6462633,10.560489 10.550852,10.439164 11.400636,10.2215 l 3.18638,5.51994 c 0.194283,0.298316 0.622002,0.03851 0.456821,-0.265636 l -0.758096,-1.313189 v -0.142121 -2.072369 c 1.8e-4,-0.04659 -0.01194,-0.09241 -0.03514,-0.132818 L 13.008295,9.6602527 c 0.335431,-0.1521831 0.652201,-0.3201009 0.945682,-0.5049139 0.245871,-0.1457791 0.118,-0.5238631 -0.165882,-0.490443 -0.0412,0.0051 -0.08071,0.01974 -0.115239,0.04289 -0.277601,0.1748149 -0.579613,0.335289 -0.902274,0.4806241 -0.009,0.0038 -0.01817,0.0081 -0.02687,0.01292 L 10.696282,5.6509117 Z M 3.1742308,11.903188 c -0.4388076,-6.6e-5 -0.7943705,0.355521 -0.7942698,0.794322 1.135e-4,0.43865 0.3556138,0.794388 0.7942698,0.794323 0.4385044,-1.49e-4 0.7941563,-0.355825 0.7942699,-0.794323 1.008e-4,-0.43865 -0.3556139,-0.794174 -0.7942699,-0.794322 z m 0,0.595354 c 0.1098944,3.7e-5 0.1989804,0.08908 0.198955,0.198968 -2.83e-5,0.109855 -0.089099,0.198932 -0.198955,0.198969 -0.1098945,1.7e-5 -0.1989267,-0.08908 -0.198955,-0.198969 -2.51e-5,-0.109932 0.089023,-0.198985 0.198955,-0.198968 z m -1.3218883,0.240829 v 2.869276 c -9.789e-4,0.271522 0.3587381,0.36823 0.4940286,0.132818 l 0.999426,-1.731282 c 0.00177,-2.31e-4 0.00344,-7.41e-4 0.00517,-10e-4 -0.00322,4.24e-4 -0.0066,8.6e-5 -0.00982,5.3e-4 -0.048185,0.0062 -0.096673,0.0101 -0.1462447,0.01085 -0.00682,1.32e-4 -0.013306,0.0016 -0.020153,0.0016 -0.045709,7e-6 -0.090848,-0.0027 -0.1353929,-0.0072 -0.042421,-0.0044 -0.084382,-0.01073 -0.1255741,-0.01912 -5.292e-4,-1.09e-4 -0.00101,-3.97e-4 -0.00156,-5.29e-4 -0.019653,-0.004 -0.037505,-0.01267 -0.056844,-0.01757 -0.066378,-0.01672 -0.1322732,-0.03458 -0.1943042,-0.06098 -9.26e-4,-3.97e-4 -0.00167,-0.0011 -0.00259,-0.0016 -0.077993,-0.03341 -0.1521129,-0.07427 -0.2216717,-0.121443 -0.070267,-0.04765 -0.1355006,-0.101865 -0.1953377,-0.161759 -0.00173,-0.0017 -0.00293,-0.0039 -0.00465,-0.0057 -0.056972,-0.05765 -0.1087553,-0.119876 -0.1545131,-0.187082 -0.00954,-0.01397 -0.016305,-0.02959 -0.025322,-0.04393 -0.035572,-0.05675 -0.069327,-0.114723 -0.096119,-0.176746 -0.010248,-0.02358 -0.015919,-0.04914 -0.024805,-0.07339 -0.020101,-0.05521 -0.040048,-0.110186 -0.05271,-0.168477 -0.01599,-0.07283 -0.026194,-0.147251 -0.029456,-0.223775 -1.928e-4,-0.0046 -0.0014,-0.0088 -0.00155,-0.01344 z" id="path1887" style="opacity:1;fill:#000000;fill-opacity:1;stroke:none;stroke-width:0.52916664;stroke-linecap:round;stroke-linejoin:round;stroke-miterlimit:4;stroke-dasharray:none;stroke-dashoffset:0;stroke-opacity:1"/></g></svg>