<?xml version="1.0" ?><!DOCTYPE svg  PUBLIC '-//W3C//DTD SVG 1.1//EN'  'http://www.w3.org/Graphics/SVG/1.1/DTD/svg11.dtd'><svg height="512px" style="enable-background:new 0 0 512 512;" version="1.1" viewBox="0 0 512 512" width="512px" xml:space="preserve" xmlns="http://www.w3.org/2000/svg" xmlns:xlink="http://www.w3.org/1999/xlink"><g id="C_-_155_x2C__Content_x2C__writing_x2C__design_x2C__development_x2C__gear_x2C__production"><g><path d="M160.687,273.635l-0.069,0.015c0.049,0.003,0.096,0.01,0.144,0.015l0.176-0.031L160.687,273.635z"/><path d="M370.146,294.442c1.447-3.729,2.689-7.563,3.711-11.451H324.71c-10.265,20.605-31.394,33.755-54.668,33.755    c-24.322,0-46.299-14.354-55.989-36.567l-0.001-0.001c0-0.001,0-0.002,0-0.002c-0.169-0.387-0.316-0.728-0.454-1.067l-0.107-0.266    c-0.032-0.071-0.066-0.151-0.085-0.199l-0.321-0.849c-0.123-0.319-0.245-0.639-0.362-0.959l-0.109-0.287    c-0.038-0.09-0.074-0.182-0.106-0.274l-0.593-1.751c-0.009-0.027-0.016-0.055-0.024-0.083c-0.038-0.115-0.07-0.232-0.107-0.348    l-0.077-0.242c-0.106-0.343-0.206-0.664-0.297-0.986l-0.142-0.494c-0.009-0.032-0.018-0.064-0.027-0.097l-0.115-0.446    c-0.097-0.358-0.188-0.719-0.279-1.079L210.653,270c-0.01-0.039-0.019-0.077-0.027-0.116l-0.247-1.124    c-0.041-0.188-0.085-0.373-0.124-0.562l-0.015-0.069c-0.008-0.038-0.017-0.076-0.024-0.115l-0.257-1.372    c-0.051-0.28-0.093-0.553-0.137-0.828c-0.047-0.283-0.093-0.567-0.135-0.853c-0.035-0.224-0.07-0.467-0.104-0.718l-0.052-0.371    c-0.007-0.047-0.013-0.093-0.018-0.14l-0.015-0.128c-0.044-0.341-0.09-0.749-0.135-1.154l-0.005-0.052    c-0.009-0.09-0.019-0.179-0.028-0.268c0-0.001-0.001-0.004-0.001-0.005c-0.012-0.125-0.018-0.253-0.028-0.378    c-0.088-0.934-0.16-1.87-0.205-2.811c0-0.005-0.001-0.01-0.001-0.014c-0.02-0.419-0.034-0.845-0.048-1.267    c-0.002-0.051-0.003-0.124-0.003-0.177c-0.014-0.438-0.022-0.96-0.022-1.48c0-0.502,0.007-1.002,0.022-1.506    c0.001-0.046,0.001-0.096,0.002-0.125c0.016-0.493,0.031-0.984,0.054-1.474c0-0.003,0.001-0.004,0.001-0.007    c0.054-1.065,0.136-2.127,0.245-3.183c0-0.002,0-0.005,0.001-0.008l0.153-1.311c0.007-0.052,0.013-0.104,0.021-0.157l0.014-0.089    c0.042-0.335,0.089-0.665,0.139-0.996c0.028-0.191,0.05-0.383,0.08-0.574c0-0.001,0.001-0.002,0.001-0.003l0.058-0.349    c0.045-0.275,0.09-0.548,0.142-0.824l0.035-0.212c0.008-0.052,0.018-0.104,0.028-0.156l0.196-0.99    c0.054-0.269,0.111-0.537,0.169-0.806c0.058-0.271,0.112-0.541,0.18-0.813l0.293-1.239c0.01-0.042,0.021-0.084,0.032-0.126    l0.056-0.206c0.055-0.214,0.116-0.426,0.174-0.639l0.299-1.102c0.009-0.032,0.019-0.064,0.028-0.095l0.212-0.662    c0.151-0.496,0.311-0.99,0.476-1.483l0.187-0.583c0.023-0.08,0.047-0.159,0.074-0.232l0.434-1.188    c0.028-0.071,0.052-0.144,0.08-0.216c0.001-0.003,0.003-0.007,0.004-0.011l0.125-0.33c0.015-0.038,0.029-0.077,0.044-0.114    l0.334-0.85c0.026-0.066,0.053-0.131,0.081-0.195l0.498-1.178c0.019-0.051,0.04-0.099,0.062-0.148    c9.69-22.215,31.667-36.57,55.989-36.57c23.274,0,44.403,13.151,54.669,33.758h49.146c-1.021-3.889-2.263-7.719-3.709-11.445    c-0.745-1.916-0.153-4.092,1.456-5.368l30.248-23.983l-6.924-11.923l-36.037,14.104c-1.896,0.742-4.061,0.172-5.346-1.411    c-4.759-5.865-10.188-11.267-16.135-16.057c-1.598-1.287-2.172-3.462-1.42-5.37l14.148-35.842l-12.001-6.899l-24.11,30.124    c-1.272,1.592-3.43,2.18-5.333,1.448c-7.146-2.735-14.564-4.709-22.05-5.865c-2.026-0.313-3.613-1.905-3.919-3.933l-5.737-38.08    h-13.887l-5.751,38.081c-0.306,2.026-1.893,3.619-3.917,3.932c-7.5,1.158-14.913,3.131-22.035,5.864    c-1.904,0.732-4.063,0.146-5.336-1.446l-24.117-30.125l-12,6.899l14.154,35.841c0.754,1.91,0.176,4.088-1.424,5.375    c-5.907,4.745-11.333,10.146-16.132,16.054c-1.285,1.585-3.445,2.156-5.344,1.41l-36.051-14.11l-6.92,11.928l30.244,23.978    c1.608,1.275,2.199,3.447,1.458,5.362c-2.145,5.548-3.832,11.294-5.011,17.077c-0.001,0.009-0.003,0.018-0.005,0.026    c-0.01,0.047-0.02,0.094-0.031,0.139c-0.004,0.026-0.01,0.052-0.016,0.078c-0.015,0.081-0.038,0.196-0.061,0.297    c-0.006,0.034-0.013,0.067-0.02,0.101l-0.024,0.129c-0.005,0.03-0.012,0.063-0.019,0.099c-0.005,0.028-0.01,0.057-0.015,0.085    c-0.013,0.068-0.03,0.154-0.05,0.239c-0.015,0.091-0.032,0.179-0.051,0.268c0,0.005-0.001,0.009-0.002,0.013l0,0    c-0.009,0.038-0.019,0.076-0.027,0.114l0.006,0.001c-0.006,0.034-0.012,0.066-0.018,0.099l-0.051-0.008    c0,0.018-0.001,0.035-0.002,0.052l0.038,0.004c-0.003,0.027-0.007,0.053-0.012,0.08l0.002,0.001    c-0.003,0.022-0.016,0.086-0.019,0.107h-0.001c-0.009,0.056-0.019,0.111-0.031,0.167c-0.003,0.019-0.007,0.036-0.007,0.038    c-0.004,0.024-0.013,0.073-0.021,0.122c-0.015,0.098-0.033,0.196-0.054,0.291c-0.012,0.092-0.026,0.182-0.041,0.256    c0,0-0.012,0.065-0.021,0.111c-0.008,0.046-0.018,0.101-0.022,0.122h-0.001c-0.007,0.047-0.016,0.094-0.025,0.141    c-0.006,0.039-0.014,0.078-0.019,0.104c-0.003,0.022-0.006,0.044-0.01,0.065l0,0c-0.008,0.055-0.026,0.165-0.036,0.219h-0.003    c-0.005,0.03-0.012,0.06-0.017,0.089c-0.002,0.01-0.003,0.021-0.005,0.032h0.003c0,0-0.004,0.02-0.008,0.044    c-0.013,0.1-0.028,0.199-0.044,0.279h-0.001c-0.014,0.11-0.03,0.217-0.05,0.321c-0.005,0.023-0.012,0.065-0.019,0.1    c-0.01,0.073-0.021,0.151-0.031,0.208c-0.002,0.009-0.005,0.028-0.009,0.049c-0.009,0.071-0.019,0.141-0.029,0.196    c-0.354,1.979-1.944,3.59-3.934,3.887l-38.274,5.718v13.784l38.274,5.714c2.002,0.3,3.586,1.852,3.927,3.848    c0.011,0.066,0.026,0.157,0.038,0.246c0.017,0.092,0.035,0.208,0.044,0.277c0.003,0.031,0.007,0.064,0.011,0.097l0.007-0.001    c0.019,0.101,0.035,0.2,0.047,0.301c0.015,0.081,0.029,0.175,0.042,0.265c0.006,0.036,0.013,0.072,0.017,0.091    c0.002,0.012,0.018,0.102,0.028,0.159c0.015,0.081,0.028,0.163,0.04,0.245c0.003,0.021,0.007,0.04,0.01,0.053    c0.011,0.058,0.022,0.117,0.031,0.172c0.006,0.035,0.013,0.067,0.016,0.083l-1.11,0.23c0.042,0.032,0.083,0.065,0.123,0.101    l0.967-0.277c0.011,0.036,0.021,0.072,0.03,0.108l0.019-0.003c0.017,0.087,0.031,0.174,0.042,0.262    c0.002,0.008,0.003,0.014,0.004,0.02c0.014,0.067,0.026,0.138,0.037,0.207c0.006,0.028,0.01,0.054,0.013,0.066h-0.002    c0,0.004,0.001,0.008,0.001,0.012c0.023,0.102,0.044,0.209,0.06,0.31c0.007,0.031,0.011,0.06,0.014,0.074l-0.032,0.007    c0.002,0.017,0.002,0.032,0.003,0.049l0.016-0.004c0.007,0.022,0.013,0.045,0.02,0.068c0.012,0.042,0.022,0.084,0.033,0.126    l0.006-0.001c0.004,0.019,0.027,0.142,0.036,0.192c0.01,0.05,0.019,0.099,0.028,0.149c0.022,0.1,0.044,0.2,0.059,0.281    c0.002,0.016,0.005,0.033,0.008,0.05c0.004,0.021,0.007,0.039,0.011,0.058h-0.002c0.005,0.039,0.011,0.079,0.017,0.12l0.007-0.001    c0.005,0.024,0.021,0.106,0.025,0.131l-0.002,0.001c0.023,0.097,0.047,0.202,0.061,0.277c0.005,0.023,0.015,0.079,0.023,0.127    c0.002,0.009,0.003,0.018,0.005,0.025c0.013,0.052,0.023,0.099,0.032,0.14c0.002,0.008,0.004,0.016,0.005,0.023    c1.169,5.73,2.857,11.481,5.015,17.094c0.735,1.912,0.143,4.081-1.463,5.353l-30.244,23.973l6.922,11.933l36.05-14.11    c1.898-0.742,4.057-0.174,5.342,1.407c4.819,5.927,10.248,11.329,16.134,16.058c1.601,1.286,2.178,3.464,1.424,5.374    l-14.154,35.838l12,6.896l24.117-30.125c1.274-1.591,3.434-2.175,5.338-1.444c7.09,2.723,14.505,4.698,22.036,5.869    c2.023,0.314,3.607,1.905,3.913,3.93l5.751,38.076h13.887l5.737-38.074c0.305-2.025,1.89-3.617,3.914-3.932    c7.519-1.168,14.938-3.144,22.053-5.871c1.901-0.731,4.061-0.145,5.335,1.447l24.11,30.124l12-6.897l-14.147-35.838    c-0.752-1.908-0.178-4.083,1.42-5.37c5.939-4.783,11.367-10.186,16.136-16.058c1.286-1.583,3.447-2.153,5.345-1.41l36.037,14.1    l6.924-11.924l-30.248-23.978C369.994,298.533,369.403,296.357,370.146,294.442z"/><path d="M112.461,266.931v-21.859c0-2.32,1.699-4.291,3.993-4.634l13.773-2.058H85.859v35.24h44.363l-13.767-2.056    C114.16,271.222,112.461,269.251,112.461,266.931z"/><rect height="35.24" width="35.093" x="41.395" y="238.38"/><path d="M270.042,204.623c-18.087,0-34.636,9.371-43.953,24.387h87.899C304.672,213.994,288.124,204.623,270.042,204.623z"/><path d="M270.042,307.376c18.082,0,34.63-9.37,43.946-24.385h-87.895C235.431,298.021,251.97,307.376,270.042,307.376z"/><polygon points="427.615,240.315 427.615,271.552 470.605,255.479   "/><path d="M379.762,238.38h-58.033H221.523l-0.106,0.28c-0.095,0.264-0.181,0.529-0.271,0.793l-0.737,2.332    c-0.053,0.183-0.111,0.364-0.161,0.547l-0.573,2.268c-0.035,0.144-0.065,0.274-0.093,0.403c-0.093,0.418-0.171,0.84-0.253,1.261    l-0.131,0.682c-0.008,0.043-0.015,0.085-0.023,0.128c-0.02,0.103-0.035,0.204-0.052,0.306c-0.071,0.419-0.135,0.84-0.195,1.262    c-0.036,0.245-0.072,0.49-0.103,0.738c-0.004,0.038-0.01,0.075-0.016,0.113l-0.019,0.156c-0.053,0.429-0.099,0.86-0.141,1.292    c-0.062,0.63-0.108,1.268-0.148,1.905c-0.015,0.25-0.038,0.498-0.049,0.749c-0.005,0.132-0.01,0.271-0.015,0.409    c-0.025,0.665-0.043,1.329-0.043,1.997c0,0.633,0.019,1.263,0.041,1.893c0.008,0.207,0.014,0.416,0.024,0.618    c0.008,0.18,0.025,0.358,0.035,0.537c0.039,0.638,0.085,1.271,0.143,1.9c0.051,0.535,0.108,1.069,0.175,1.602l0.055,0.409    c0.003,0.029,0.008,0.059,0.013,0.088c0.063,0.46,0.136,0.918,0.212,1.377c0.031,0.19,0.06,0.378,0.093,0.57l0.924,4.155    l0.177,0.646c0.135,0.479,0.272,0.958,0.422,1.435l0.101,0.317c0.01,0.032,0.02,0.065,0.028,0.098    c0.178,0.549,0.367,1.095,0.563,1.64l0.126,0.335h100.203h58.033h38.482v-35.24h-38.465    C379.775,238.38,379.768,238.38,379.762,238.38z"/></g></g><g id="Layer_1"/></svg>